{
  "accessors": [
    {
      "bufferView": 2,
      "componentType": 5126,
      "count": 65532,
      "max": [
        0.11598517000675201,
        0.9982780814170837,
        0.9983111023902893
      ],
      "min": [
        -0.9980794787406921,
        -0.9840793013572693,
        -0.9981005191802979
      ],
      "type": "VEC3"
    },
    {
      "bufferView": 2,
      "byteOffset": 786384,
      "componentType": 5126,
      "count": 65532,
      "max": [
        0.9987251162528992,
        1.0,
        0.9999797344207764
      ],
      "min": [
        -1.0,
        -0.9999974966049194,
        -0.9995007514953613
      ],
      "type": "VEC3"
    },
    {
      "bufferView": 3,
      "componentType": 5126,
      "count": 65532,
      "max": [
        0.9999991655349731,
        0.9999895691871643,
        1.0,
        1.0
      ],
      "min": [
        -0.9999785423278809,
        -0.9999991655349731,
        -1.0,
        -1.0
      ],
      "type": "VEC4"
    },
    {
      "bufferView": 1,
      "componentType": 5126,
      "count": 65532,
      "max": [
        1.0000392198562622,
        0.9634295701980591
      ],
      "min": [
        -5.016003706259653e-05,
        0.05433688685297966
      ],
      "type": "VEC2"
    },
    {
      "bufferView": 1,
      "byteOffset": 524256,
      "componentType": 5126,
      "count": 65532,
      "max": [
        1.0000392198562622,
        0.9634295701980591
      ],
      "min": [
        -5.016003706259653e-05,
        0.05433688685297966
      ],
      "type": "VEC2"
    },
    {
      "bufferView": 1,
      "byteOffset": 1048512,
      "componentType": 5126,
      "count": 65532,
      "max": [
        1.0000392198562622,
        0.9634295701980591
      ],
      "min": [
        -5.016003706259653e-05,
        0.05433688685297966
      ],
      "type": "VEC2"
    },
    {
      "bufferView": 1,
      "byteOffset": 1572768,
      "componentType": 5126,
      "count": 65532,
      "max": [
        1.0000392198562622,
        0.9634295701980591
      ],
      "min": [
        -5.016003706259653e-05,
        0.05433688685297966
      ],
      "type": "VEC2"
    },
    {
      "bufferView": 0,
      "componentType": 5125,
      "count": 327924,
      "type": "SCALAR"
    },
    {
      "bufferView": 2,
      "byteOffset": 1572768,
      "componentType": 5126,
      "count": 65532,
      "max": [
        0.16955971717834473,
        0.998242199420929,
        0.9983360171318054
      ],
      "min": [
        -0.9980794787406921,
        -0.9840793013572693,
        -0.9980849027633667
      ],
      "type": "VEC3"
    },
    {
      "bufferView": 2,
      "byteOffset": 2359152,
      "componentType": 5126,
      "count": 65532,
      "max": [
        0.999997615814209,
        1.0,
        1.0
      ],
      "min": [
        -1.0,
        -0.9999990463256836,
        -0.9995019435882568
      ],
      "type": "VEC3"
    },
    {
      "bufferView": 3,
      "byteOffset": 1048512,
      "componentType": 5126,
      "count": 65532,
      "max": [
        1.0,
        1.0,
        1.0,
        1.0
      ],
      "min": [
        -0.9999887943267822,
        -1.0,
        -1.0,
        -1.0
      ],
      "type": "VEC4"
    },
    {
      "bufferView": 1,
      "byteOffset": 2097024,
      "componentType": 5126,
      "count": 65532,
      "max": [
        1.0000263452529907,
        0.9634295701980591
      ],
      "min": [
        -5.016003706259653e-05,
        0.05433687940239906
      ],
      "type": "VEC2"
    },
    {
      "bufferView": 1,
      "byteOffset": 2621280,
      "componentType": 5126,
      "count": 65532,
      "max": [
        1.0000263452529907,
        0.9634295701980591
      ],
      "min": [
        -5.016003706259653e-05,
        0.05433687940239906
      ],
      "type": "VEC2"
    },
    {
      "bufferView": 1,
      "byteOffset": 3145536,
      "componentType": 5126,
      "count": 65532,
      "max": [
        1.0000263452529907,
        0.9634295701980591
      ],
      "min": [
        -5.016003706259653e-05,
        0.05433687940239906
      ],
      "type": "VEC2"
    },
    {
      "bufferView": 1,
      "byteOffset": 3669792,
      "componentType": 5126,
      "count": 65532,
      "max": [
        1.0000263452529907,
        0.9634295701980591
      ],
      "min": [
        -5.016003706259653e-05,
        0.05433687940239906
      ],
      "type": "VEC2"
    },
    {
      "bufferView": 0,
      "byteOffset": 1311696,
      "componentType": 5125,
      "count": 322353,
      "type": "SCALAR"
    },
    {
      "bufferView": 2,
      "byteOffset": 3145536,
      "componentType": 5126,
      "count": 50066,
      "max": [
        0.16955971717834473,
        0.9901570677757263,
        0.9983008503913879
      ],
      "min": [
        -0.9980794787406921,
        -0.9982761144638062,
        -0.9983674883842468
      ],
      "type": "VEC3"
    },
    {
      "bufferView": 2,
      "byteOffset": 3746328,
      "componentType": 5126,
      "count": 50066,
      "max": [
        0.999997615814209,
        1.0,
        1.0
      ],
      "min": [
        -0.999997615814209,
        -1.0,
        -1.0
      ],
      "type": "VEC3"
    },
    {
      "bufferView": 3,
      "byteOffset": 2097024,
      "componentType": 5126,
      "count": 50066,
      "max": [
        0.9999998211860657,
        1.0,
        1.0,
        1.0
      ],
      "min": [
        -0.9999998211860657,
        -1.0,
        -1.0,
        -1.0
      ],
      "type": "VEC4"
    },
    {
      "bufferView": 1,
      "byteOffset": 4194048,
      "componentType": 5126,
      "count": 50066,
      "max": [
        1.0000501871109009,
        0.9634295701980591
      ],
      "min": [
        -5.016003706259653e-05,
        0.05433729290962219
      ],
      "type": "VEC2"
    },
    {
      "bufferView": 1,
      "byteOffset": 4594576,
      "componentType": 5126,
      "count": 50066,
      "max": [
        1.0000501871109009,
        0.9634295701980591
      ],
      "min": [
        -5.016003706259653e-05,
        0.05433729290962219
      ],
      "type": "VEC2"
    },
    {
      "bufferView": 1,
      "byteOffset": 4995104,
      "componentType": 5126,
      "count": 50066,
      "max": [
        1.0000501871109009,
        0.9634295701980591
      ],
      "min": [
        -5.016003706259653e-05,
        0.05433729290962219
      ],
      "type": "VEC2"
    },
    {
      "bufferView": 1,
      "byteOffset": 5395632,
      "componentType": 5126,
      "count": 50066,
      "max": [
        1.0000501871109009,
        0.9634295701980591
      ],
      "min": [
        -5.016003706259653e-05,
        0.05433729290962219
      ],
      "type": "VEC2"
    },
    {
      "bufferView": 0,
      "byteOffset": 2601108,
      "componentType": 5125,
      "count": 226683,
      "type": "SCALAR"
    },
    {
      "bufferView": 2,
      "byteOffset": 4347120,
      "componentType": 5126,
      "count": 65532,
      "max": [
        0.9980794787406921,
        0.9981023073196411,
        0.9840974807739258
      ],
      "min": [
        -0.018034733831882477,
        -0.9980159401893616,
        -0.9505218863487244
      ],
      "type": "VEC3"
    },
    {
      "bufferView": 2,
      "byteOffset": 5133504,
      "componentType": 5126,
      "count": 65532,
      "max": [
        1.0,
        0.9995008707046509,
        0.9999978542327881
      ],
      "min": [
        -0.9659054279327393,
        -0.9995323419570923,
        -0.9999978542327881
      ],
      "type": "VEC3"
    },
    {
      "bufferView": 3,
      "byteOffset": 2898080,
      "componentType": 5126,
      "count": 65532,
      "max": [
        1.0,
        1.0,
        0.9999999403953552,
        1.0
      ],
      "min": [
        -1.0,
        -1.0,
        -1.0,
        -1.0
      ],
      "type": "VEC4"
    },
    {
      "bufferView": 1,
      "byteOffset": 5796160,
      "componentType": 5126,
      "count": 65532,
      "max": [
        1.0000392198562622,
        0.9634295105934143
      ],
      "min": [
        -3.907521386281587e-05,
        0.05433687940239906
      ],
      "type": "VEC2"
    },
    {
      "bufferView": 1,
      "byteOffset": 6320416,
      "componentType": 5126,
      "count": 65532,
      "max": [
        1.0000392198562622,
        0.9634295105934143
      ],
      "min": [
        -3.907521386281587e-05,
        0.05433687940239906
      ],
      "type": "VEC2"
    },
    {
      "bufferView": 1,
      "byteOffset": 6844672,
      "componentType": 5126,
      "count": 65532,
      "max": [
        1.0000392198562622,
        0.9634295105934143
      ],
      "min": [
        -3.907521386281587e-05,
        0.05433687940239906
      ],
      "type": "VEC2"
    },
    {
      "bufferView": 1,
      "byteOffset": 7368928,
      "componentType": 5126,
      "count": 65532,
      "max": [
        1.0000392198562622,
        0.9634295105934143
      ],
      "min": [
        -3.907521386281587e-05,
        0.05433687940239906
      ],
      "type": "VEC2"
    },
    {
      "bufferView": 0,
      "byteOffset": 3507840,
      "componentType": 5125,
      "count": 331692,
      "type": "SCALAR"
    },
    {
      "bufferView": 2,
      "byteOffset": 5919888,
      "componentType": 5126,
      "count": 65532,
      "max": [
        0.9980794787406921,
        0.9980823993682861,
        0.9840977191925049
      ],
      "min": [
        -0.008352931588888168,
        -0.9980968832969666,
        -0.9840721487998962
      ],
      "type": "VEC3"
    },
    {
      "bufferView": 2,
      "byteOffset": 6706272,
      "componentType": 5126,
      "count": 65532,
      "max": [
        0.9999868869781494,
        0.9995332956314087,
        0.9999978542327881
      ],
      "min": [
        -0.9659054279327393,
        -0.9995322227478027,
        -0.9999982118606567
      ],
      "type": "VEC3"
    },
    {
      "bufferView": 3,
      "byteOffset": 3946592,
      "componentType": 5126,
      "count": 65532,
      "max": [
        1.0,
        1.0,
        0.9999991655349731,
        1.0
      ],
      "min": [
        -1.0,
        -1.0,
        -0.9999991059303284,
        -1.0
      ],
      "type": "VEC4"
    },
    {
      "bufferView": 1,
      "byteOffset": 7893184,
      "componentType": 5126,
      "count": 65532,
      "max": [
        1.0000263452529907,
        0.9634295105934143
      ],
      "min": [
        -3.907398058800027e-05,
        0.05433690920472145
      ],
      "type": "VEC2"
    },
    {
      "bufferView": 1,
      "byteOffset": 8417440,
      "componentType": 5126,
      "count": 65532,
      "max": [
        1.0000263452529907,
        0.9634295105934143
      ],
      "min": [
        -3.907398058800027e-05,
        0.05433690920472145
      ],
      "type": "VEC2"
    },
    {
      "bufferView": 1,
      "byteOffset": 8941696,
      "componentType": 5126,
      "count": 65532,
      "max": [
        1.0000263452529907,
        0.9634295105934143
      ],
      "min": [
        -3.907398058800027e-05,
        0.05433690920472145
      ],
      "type": "VEC2"
    },
    {
      "bufferView": 1,
      "byteOffset": 9465952,
      "componentType": 5126,
      "count": 65532,
      "max": [
        1.0000263452529907,
        0.9634295105934143
      ],
      "min": [
        -3.907398058800027e-05,
        0.05433690920472145
      ],
      "type": "VEC2"
    },
    {
      "bufferView": 0,
      "byteOffset": 4834608,
      "componentType": 5125,
      "count": 324099,
      "type": "SCALAR"
    },
    {
      "bufferView": 2,
      "byteOffset": 7492656,
      "componentType": 5126,
      "count": 1925,
      "max": [
        0.9971880316734314,
        0.9810987710952759,
        0.9570575952529907
      ],
      "min": [
        -1.212790266436059e-06,
        -0.8736394643783569,
        -0.965416431427002
      ],
      "type": "VEC3"
    },
    {
      "bufferView": 2,
      "byteOffset": 7515756,
      "componentType": 5126,
      "count": 1925,
      "max": [
        0.9955981969833374,
        0.9978743195533752,
        0.999990701675415
      ],
      "min": [
        -0.8239274621009827,
        -0.9936352968215942,
        -0.999997615814209
      ],
      "type": "VEC3"
    },
    {
      "bufferView": 3,
      "byteOffset": 4995104,
      "componentType": 5126,
      "count": 1925,
      "max": [
        0.9999816417694092,
        0.9995360970497131,
        0.9999232888221741,
        1.0
      ],
      "min": [
        -0.9999005794525146,
        -0.9995886087417603,
        -0.9857809543609619,
        -1.0
      ],
      "type": "VEC4"
    },
    {
      "bufferView": 1,
      "byteOffset": 9990208,
      "componentType": 5126,
      "count": 1925,
      "max": [
        0.9937503933906555,
        0.9177170395851135
      ],
      "min": [
        0.0999998077750206,
        0.08473536372184753
      ],
      "type": "VEC2"
    },
    {
      "bufferView": 1,
      "byteOffset": 10005608,
      "componentType": 5126,
      "count": 1925,
      "max": [
        0.9937503933906555,
        0.9177170395851135
      ],
      "min": [
        0.0999998077750206,
        0.08473536372184753
      ],
      "type": "VEC2"
    },
    {
      "bufferView": 1,
      "byteOffset": 10021008,
      "componentType": 5126,
      "count": 1925,
      "max": [
        0.9937503933906555,
        0.9177170395851135
      ],
      "min": [
        0.0999998077750206,
        0.08473536372184753
      ],
      "type": "VEC2"
    },
    {
      "bufferView": 1,
      "byteOffset": 10036408,
      "componentType": 5126,
      "count": 1925,
      "max": [
        0.9937503933906555,
        0.9177170395851135
      ],
      "min": [
        0.0999998077750206,
        0.08473536372184753
      ],
      "type": "VEC2"
    },
    {
      "bufferView": 0,
      "byteOffset": 6131004,
      "componentType": 5125,
      "count": 5529,
      "type": "SCALAR"
    },
    {
      "bufferView": 4,
      "componentType": 5126,
      "count": 1100,
      "max": [
        18.33333396911621
      ],
      "min": [
        0.01666666753590107
      ],
      "type": "SCALAR"
    },
    {
      "bufferView": 5,
      "componentType": 5126,
      "count": 1100,
      "max": [
        0.4999995231628418,
        0.9999979734420776,
        0.4999994933605194,
        1.0
      ],
      "min": [
        -0.4999994933605194,
        -0.9897371530532837,
        -0.4999995231628418,
        -0.009694714099168777
      ],
      "type": "VEC4"
    }
  ],
  "animations": [
    {
      "channels": [
        {
          "sampler": 0,
          "target": {
            "node": 3,
            "path": "rotation"
          }
        }
      ],
      "name": "Action",
      "samplers": [
        {
          "input": 48,
          "interpolation": "LINEAR",
          "output": 49
        }
      ]
    }
  ],
  "asset": {
    "extras": {
      "author": "Tycho Magnetic Anomaly (https://sketchfab.com/Tycho_Magnetic_Anomaly)",
      "license": "CC-BY-4.0 (http://creativecommons.org/licenses/by/4.0/)",
      "source": "https://sketchfab.com/3d-models/inner-sanctum-please-leave-the-camera-alone-60d9bbbbc2334c1d83672525aebbc892",
      "title": "INNER SANCTUM - please leave the camera alone :)"
    },
    "generator": "Sketchfab-15.5.0",
    "version": "2.0"
  },
  "bufferViews": [
    {
      "buffer": 0,
      "byteLength": 6153120,
      "name": "floatBufferViews",
      "target": 34963
    },
    {
      "buffer": 0,
      "byteLength": 10051808,
      "byteOffset": 6153120,
      "byteStride": 8,
      "name": "floatBufferViews",
      "target": 34962
    },
    {
      "buffer": 0,
      "byteLength": 7538856,
      "byteOffset": 16204928,
      "byteStride": 12,
      "name": "floatBufferViews",
      "target": 34962
    },
    {
      "buffer": 0,
      "byteLength": 5025904,
      "byteOffset": 23743784,
      "byteStride": 16,
      "name": "floatBufferViews",
      "target": 34962
    },
    {
      "buffer": 0,
      "byteLength": 4400,
      "byteOffset": 28769688,
      "name": "floatBufferViews"
    },
    {
      "buffer": 0,
      "byteLength": 17600,
      "byteOffset": 28774088,
      "byteStride": 16,
      "name": "floatBufferViews"
    }
  ],
  "buffers": [
    {
      "byteLength": 28791688,
      "uri": "scene.bin"
    }
  ],
  "extensionsUsed": [
    "KHR_materials_emissive_strength",
    "KHR_materials_clearcoat"
  ],
  "images": [
    {
      "uri": "textures/Brushed_Metal_1_tb_baseColor.jpeg"
    },
    {
      "uri": "textures/Brushed_Metal_1_tb_metallicRoughness.png"
    },
    {
      "uri": "textures/Brushed_Metal_1_tb_normal.jpeg"
    }
  ],
  "materials": [
    {
      "doubleSided": true,
      "emissiveFactor": [
        0.0014084420732077625,
        0.00015456842435009155,
        0.006598275912249235
      ],
      "extensions": {
        "KHR_materials_clearcoat": {
          "clearcoatFactor": 1.0,
          "clearcoatRoughnessFactor": 0.4591194969
        },
        "KHR_materials_emissive_strength": {
          "emissiveStrength": 10.0
        }
      },
      "name": "Brushed_Metal_1_tb",
      "normalTexture": {
        "index": 2,
        "texCoord": 2
      },
      "pbrMetallicRoughness": {
        "baseColorTexture": {
          "index": 0
        },
        "metallicRoughnessTexture": {
          "index": 1,
          "texCoord": 1
        }
      }
    }
  ],
  "meshes": [
    {
      "name": "Object_0",
      "primitives": [
        {
          "attributes": {
            "NORMAL": 1,
            "POSITION": 0,
            "TANGENT": 2,
            "TEXCOORD_0": 3,
            "TEXCOORD_1": 4,
            "TEXCOORD_2": 5,
            "TEXCOORD_3": 6
          },
          "indices": 7,
          "material": 0,
          "mode": 4
        }
      ]
    },
    {
      "name": "Object_1",
      "primitives": [
        {
          "attributes": {
            "NORMAL": 9,
            "POSITION": 8,
            "TANGENT": 10,
            "TEXCOORD_0": 11,
            "TEXCOORD_1": 12,
            "TEXCOORD_2": 13,
            "TEXCOORD_3": 14
          },
          "indices": 15,
          "material": 0,
          "mode": 4
        }
      ]
    },
    {
      "name": "Object_2",
      "primitives": [
        {
          "attributes": {
            "NORMAL": 17,
            "POSITION": 16,
            "TANGENT": 18,
            "TEXCOORD_0": 19,
            "TEXCOORD_1": 20,
            "TEXCOORD_2": 21,
            "TEXCOORD_3": 22
          },
          "indices": 23,
          "material": 0,
          "mode": 4
        }
      ]
    },
    {
      "name": "Object_3",
      "primitives": [
        {
          "attributes": {
            "NORMAL": 25,
            "POSITION": 24,
            "TANGENT": 26,
            "TEXCOORD_0": 27,
            "TEXCOORD_1": 28,
            "TEXCOORD_2": 29,
            "TEXCOORD_3": 30
          },
          "indices": 31,
          "material": 0,
          "mode": 4
        }
      ]
    },
    {
      "name": "Object_4",
      "primitives": [
        {
          "attributes": {
            "NORMAL": 33,
            "POSITION": 32,
            "TANGENT": 34,
            "TEXCOORD_0": 35,
            "TEXCOORD_1": 36,
            "TEXCOORD_2": 37,
            "TEXCOORD_3": 38
          },
          "indices": 39,
          "material": 0,
          "mode": 4
        }
      ]
    },
    {
      "name": "Object_5",
      "primitives": [
        {
          "attributes": {
            "NORMAL": 41,
            "POSITION": 40,
            "TANGENT": 42,
            "TEXCOORD_0": 43,
            "TEXCOORD_1": 44,
            "TEXCOORD_2": 45,
            "TEXCOORD_3": 46
          },
          "indices": 47,
          "material": 0,
          "mode": 4
        }
      ]
    }
  ],
  "nodes": [
    {
      "children": [
        1
      ],
      "matrix": [
        1.0,
        0.0,
        0.0,
        0.0,
        0.0,
        2.220446049250313e-16,
        -1.0,
        0.0,
        0.0,
        1.0,
        2.220446049250313e-16,
        0.0,
        0.0,
        0.0,
        0.0,
        1.0
      ],
      "name": "Sketchfab_model"
    },
    {
      "children": [
        2
      ],
      "name": "root"
    },
    {
      "children": [
        3
      ],
      "matrix": [
        1.0,
        0.0,
        0.0,
        0.0,
        0.0,
        2.220446049250313e-16,
        1.0,
        0.0,
        0.0,
        -1.0,
        2.220446049250313e-16,
        0.0,
        0.0,
        0.0,
        0.0,
        1.0
      ],
      "name": "GLTF_SceneRootNode"
    },
    {
      "children": [
        4,
        5,
        6,
        7,
        8,
        9
      ],
      "name": "Sphere.003_2"
    },
    {
      "mesh": 0,
      "name": "Object_4"
    },
    {
      "mesh": 1,
      "name": "Object_5"
    },
    {
      "mesh": 2,
      "name": "Object_6"
    },
    {
      "mesh": 3,
      "name": "Object_7"
    },
    {
      "mesh": 4,
      "name": "Object_8"
    },
    {
      "mesh": 5,
      "name": "Object_9"
    }
  ],
  "samplers": [
    {
      "magFilter": 9729,
      "minFilter": 9987,
      "wrapS": 10497,
      "wrapT": 10497
    }
  ],
  "scene": 0,
  "scenes": [
    {
      "name": "Sketchfab_Scene",
      "nodes": [
        0
      ]
    }
  ],
  "textures": [
    {
      "sampler": 0,
      "source": 0
    },
    {
      "sampler": 0,
      "source": 1
    },
    {
      "sampler": 0,
      "source": 2
    }
  ]
}
